<?xml version="1.0" encoding="iso-8859-1"?>
<!-- Generator: Adobe Illustrator 18.0.0, SVG Export Plug-In . SVG Version: 6.00 Build 0)  -->
<!DOCTYPE svg PUBLIC "-//W3C//DTD SVG 1.1//EN" "http://www.w3.org/Graphics/SVG/1.1/DTD/svg11.dtd">
<svg version="1.1" id="Capa_1" xmlns="http://www.w3.org/2000/svg" xmlns:xlink="http://www.w3.org/1999/xlink" x="0px" y="0px"
	 viewBox="0 0 78.5 78.5" style="enable-background:new 0 0 78.5 78.5;" xml:space="preserve">
<g>
	<path d="M51.205,62.997c-0.021-0.161-0.068-0.32-0.102-0.479c-0.432-5.393-5.199-10.034-9.605-12.615
		c-2.267-1.328-4.438-1.949-6.887-0.825c-1.96,0.901-3.228,3.766-4.376,6.009c-7.59,0.129-14.62-12.984-7.861-18.136
		c0.873-0.664,1.625-1.331,2.201-2.062c0.668-0.489,1.261-1.13,1.653-1.671c2.107-2.917,0.442-7.61-1.494-10.103
		c-2.518-3.242-6.301-5.818-10.104-7.309c-3.325-1.3-5.717,0.679-7.848,2.893c-2.608,1.836-4.606,5.821-5.502,8.258
		c-1.859,5.055-1.602,12.237,0.184,18.284c0.055,1.349,0.143,2.7,0.327,4.03c0.322,1.54,0.681,3.049,1.061,4.514
		c0.171,0.493,0.344,0.985,0.557,1.462c2.276,5.089,5.921,9.596,9.792,13.581c1.284,1.323,2.723,2.486,4.271,3.49
		c0.09,0.004,0.182,0.008,0.276,0.025c0.285,0.051,0.558,0.086,0.841,0.133c6.518,4.051,18.713,5.279,25.771,0.514
		c0.203-0.021,0.399-0.035,0.602-0.058c0.204-0.178,0.415-0.349,0.613-0.538c1.307-0.902,2.467-1.967,3.327-2.977
		C50.412,67.643,51.491,65.359,51.205,62.997z M47.205,64.91c-0.255,0.587-0.605,1.133-1.009,1.65
		c-0.915-0.209-1.923-0.275-2.643-0.438c-1.794-0.4-3.232-0.91-3.961-2.659l-0.007,0.003c-0.13-0.331-0.626-0.554-0.931-0.125
		c-1.344,1.887,0.85,4.102,2.547,4.732c0.676,0.252,1.709,0.577,2.786,0.773c-0.092,0.082-0.185,0.167-0.275,0.251
		c-0.273,0.248-0.556,0.462-0.844,0.647c-1.186,0.346-2.358,0.743-3.546,1.119c-1.059,0.111-2.148,0.122-3.241,0.183
		c-0.516,0.029-0.877,0.396-0.964,0.824c-0.496,0.067-1,0.123-1.517,0.141c-0.097,0.004-0.193-0.004-0.288-0.002
		c0.011-0.017,0.016-0.036,0.028-0.054c0.544-0.816-0.569-2.012-1.394-1.392c-0.477,0.359-0.918,0.813-1.263,1.323
		c-0.92-0.097-1.839-0.233-2.76-0.388c0.776-1.03-0.707-2.45-1.693-1.461c-0.286,0.288-0.568,0.599-0.807,0.934
		c-0.871-0.28-1.713-0.58-2.497-0.904c0.299-0.304,0.621-0.583,0.979-0.796c1.104-0.659,0.139-2.215-0.989-1.692
		c-0.782,0.359-1.498,0.899-2.138,1.48c-0.253-0.134-0.517-0.266-0.748-0.402c-0.201-0.116-0.395-0.247-0.589-0.371
		c0.104-0.146,0.201-0.294,0.311-0.428c0.408-0.501,0.832-0.991,1.214-1.513c0.39-0.534-0.372-1.266-0.904-0.903
		c-0.641,0.437-1.307,0.771-1.913,1.265c-0.132,0.107-0.271,0.246-0.406,0.4c-0.711-0.546-1.394-1.135-2.054-1.756
		c0.097-0.103,0.182-0.213,0.283-0.312c0.699-0.68,1.285-1.408,1.899-2.154c0.466-0.563-0.171-1.613-0.845-1.096
		c-0.865,0.666-1.972,1.018-2.877,1.658c-0.06,0.043-0.119,0.089-0.178,0.133c-0.368-0.411-0.739-0.818-1.085-1.252
		c0.689-1.114,1.773-2.144,2.96-2.557c1.255-0.436,0.715-2.441-0.551-2.001c-1.066,0.372-2.098,0.663-3.061,1.284
		c-0.387,0.249-0.729,0.588-1.04,0.956c-0.387-0.586-0.76-1.18-1.11-1.788c0.193-0.252,0.386-0.507,0.588-0.751
		c0.521-0.631,1.289-1.409,2.046-1.72c0.72-0.295,0.46-1.435-0.33-1.199c-1.022,0.305-1.883,0.536-2.762,1.18
		c-0.206,0.15-0.405,0.317-0.599,0.49c-0.474-0.965-0.916-1.941-1.295-2.94c0.307-0.493,0.636-0.972,1.033-1.433
		c0.482-0.559,1.355-1.508,2.113-1.637c0.599-0.103,0.402-0.961-0.135-1.001c-1.303-0.095-2.22,0.146-3.326,0.89
		c-0.203,0.137-0.395,0.299-0.587,0.459c-0.116-0.407-0.227-0.813-0.325-1.221c-0.087-0.093-0.185-0.175-0.254-0.281
		c-0.058-0.086-0.107-0.18-0.162-0.267c0.263-0.448,0.677-1.006,1.135-1.119c0.339-0.085,0.381-0.676,0-0.728
		c-0.362-0.051-0.673-0.094-1.027,0.018c-0.195,0.062-0.375,0.156-0.553,0.255c-0.156-1.145-0.347-2.292-0.573-3.433
		c0.655-0.443,1.323-0.866,2.04-1.199c0.698-0.324,1.235-1.135,1.999-1.277c0.727-0.137,0.564-1.374-0.176-1.296
		c-0.879,0.092-1.577,0.96-2.413,1.004c-0.616,0.032-1.312,0.479-1.862,0.744c-0.253-1.185-0.508-2.362-0.737-3.509
		c-0.066-0.328-0.108-0.648-0.16-0.971c0.022-0.354,0.064-0.701,0.097-1.052C5.038,35.622,5.904,34.423,7.28,34
		c0.521-0.161,0.594-1.007,0-1.127c-1.072-0.216-2.125,0.095-3.093,0.624c0.032-0.207,0.056-0.421,0.089-0.626
		c0.36-2.212,1.239-7.023,3.28-9.713c0-0.009,0-0.02-0.001-0.028c-0.025-0.431,0.052-0.87,0.193-1.294
		c0.616-0.34,1.185-0.735,1.754-1.28c2.389-2.294,3.985-1.797,6.641-0.097c4.015,2.57,9.207,7.182,5.811,11.747
		c-0.116-0.03-0.227-0.054-0.343-0.086c-1.526-0.413-3.134-0.276-4.694-0.642c-0.767-0.18-2.954-1.049-3.232-1.807
		c-0.042-0.112-0.112-0.192-0.192-0.256c-0.267,0.08-0.538,0.131-0.813,0.145c-0.039,0.073-0.067,0.155-0.069,0.257
		c-0.041,1.726,1.811,2.158,2.906,3.071c0.961,0.799,2.747,1.029,4.361,0.919c-0.181,0.124-0.369,0.255-0.574,0.402
		c-0.373,0.209-0.74,0.458-1.103,0.702c-0.591,0.399-1.203,0.779-1.831,1.116c-0.605,0.326-1.302,0.418-1.896,0.785
		c-0.632,0.39-0.636,1.304,0,1.692c0.357,0.219,0.726,0.357,1.098,0.443c-0.198,1.441-0.18,3.162,0.354,4.556
		c0.135,4.65,2.455,8.756,5.573,12.25c1.542,1.726,3.083,2.649,4.674,3.087c0.131,0.072,0.269,0.136,0.423,0.173
		c0.806,0.197,1.626,0.218,2.439,0.312c0.014,0.007,0.028,0.01,0.043,0.015c0.011,0.06,0.011,0.12,0.025,0.179
		c0.346,1.431,2.748,1.553,3.007,0c0.125-0.756,0.424-1.424,0.809-2.048c0.204-0.243,0.402-0.486,0.589-0.742
		c0.02-0.068,0.052-0.134,0.076-0.201c0.905-1.158,1.993-2.22,2.663-3.479c0.263-0.176,0.54-0.325,0.845-0.404
		c0.139-0.035,0.268-0.036,0.4-0.055c0.051-0.009,0.101-0.015,0.152-0.021c0.113-0.01,0.226-0.024,0.336-0.022
		c0.195,0,0.392,0.023,0.589,0.064c0.028,0.006,0.056,0.014,0.085,0.021c0.525,0.123,1.041,0.391,1.501,0.848
		c0.056,0.057,0.092,0.116,0.145,0.173c0.078,0.05,0.165,0.103,0.241,0.148c2.143,1.254,3.689,2.914,4.839,4.829
		C46.078,60.779,48.183,62.656,47.205,64.91z"/>
	<path d="M16.269,30.861c-1.115-0.633-2.018-1.543-2.938-2.423c-0.229-0.219-0.565,0.118-0.347,0.346
		c0.941,0.984,1.843,1.831,3.094,2.402C16.295,31.286,16.483,30.984,16.269,30.861z"/>
	<path d="M70.674,14.113C64.952,5.517,56.027,2.829,46.197,2.496c-5.181-0.176-16.271-0.337-21.424,4.101
		c-0.055,0.011-0.106,0.016-0.161,0.027c-1.793,0.371-3.343,1.919-4.356,3.353c-1.424,2.014,1.351,4.097,3.11,3.077
		c0.128,0.004,0.262-0.007,0.403-0.04c0.189-0.044,0.379-0.088,0.567-0.131c0.471-0.109,0.739-0.475,0.826-0.885
		c5.799-4.653,14.004-4.457,21.035-4.282c9.326,0.232,16.62,3.748,21.159,12.106c3.613,6.655,6.092,16.815,4.432,24.278
		c-1.366,6.146-5.334,10.365-9.535,14.455c-0.883,0.703-1.722,1.429-2.499,2.021c-1.515,1.153-3.531,2.118-3.708,4.231
		c-0.039,0.459,0.09,0.826,0.316,1.102c0.356,1.47,2.418,2.386,3.948,1.733c8.981-3.829,15.706-14.581,17.688-23.822
		C79.983,34.559,75.776,21.777,70.674,14.113z"/>
	<path d="M44.528,40.054c-1.477,0.009-2.961,0.1-4.437,0.101c3.613-3.561,6.464-8.052,4.618-13.149
		c-2.363-6.526-11.145-5.657-14.264-0.428c-1.121,1.875,1.715,3.207,2.708,1.907c2.606-1.758,7.398-3.327,7.391,1.524
		c-0.008,4.118-4.618,7.519-7.533,9.715c-1.729,1.301-1.589,3.828,0.597,4.57c3.553,1.207,7.246,0.715,10.921,0.624
		C47.657,44.841,47.669,40.036,44.528,40.054z"/>
	<path d="M62.022,35.153c-0.778-0.055-1.564-0.069-2.351-0.072c-0.039-0.738-0.08-1.479-0.094-2.22
		c-0.069-3.929,0.143-8.085-0.886-11.901c-0.209-0.771-0.745-1.07-1.309-1.079c-0.288-0.264-0.691-0.397-1.109-0.272
		c-2.071,0.613-3.567,2.954-4.782,4.644c-1.077,1.499-2.107,3.138-2.637,4.919c-0.023,0.036-0.045,0.074-0.067,0.11
		c-1.198,1.904-3.334,4.806-2.371,7.224c1.003,2.517,3.093,3.309,5.713,3.545c0.971,0.086,1.961,0.144,2.957,0.186
		c0.101,1.577,0.188,3.136,0.227,4.663c0.078,3.205,5.056,3.212,4.976,0c-0.038-1.55-0.146-3.093-0.263-4.638
		c0.67-0.022,1.34-0.049,1.996-0.094C65.254,39.946,65.254,35.374,62.022,35.153z M51.258,35.299
		c-0.121-0.939,1.237-2.777,1.68-3.589c0.592-1.086,1.13-2.235,1.724-3.337c-0.087,2.222-0.018,4.473,0.103,6.718
		C53.559,35.013,51.2,34.853,51.258,35.299z"/>
</g>
<g>
</g>
<g>
</g>
<g>
</g>
<g>
</g>
<g>
</g>
<g>
</g>
<g>
</g>
<g>
</g>
<g>
</g>
<g>
</g>
<g>
</g>
<g>
</g>
<g>
</g>
<g>
</g>
<g>
</g>
</svg>
