<svg xmlns="http://www.w3.org/2000/svg" viewBox="0 0 76.07 73.8"><defs><style>.cls-1{fill:#fff;}</style></defs><title>basket</title><g id="Layer_2" data-name="Layer 2"><g id="Layer_1-2" data-name="Layer 1"><path class="cls-1" d="M75.16,24.6h0a4.4,4.4,0,0,0-3.5-1.7h-1L46.86.8a3,3,0,0,0-2-.8,2.88,2.88,0,0,0-2,.9,3,3,0,0,0-.8,2,2.61,2.61,0,0,0,1,2l19.1,18H13.86L33.06,5a2.94,2.94,0,0,0,.2-4,2.92,2.92,0,0,0-4-.2L5.46,22.9h-1a4,4,0,0,0-3.4,1.6,4.18,4.18,0,0,0-.9,3.8L9,68.9a6.12,6.12,0,0,0,6,4.9h46.3a6.4,6.4,0,0,0,6-4.9l8.8-40.6A6,6,0,0,0,75.16,24.6Zm-5.1,4-8.6,39.1v.1c0,.1-.3.3-.4.3H15c-.1,0-.3-.2-.4-.3L6,28.7h64.1Z"/><path class="cls-1" d="M38.06,56.9A3,3,0,0,0,41,54V40.7a2.9,2.9,0,0,0-2.9-2.9,3,3,0,0,0-2.9,2.9V54.1A2.88,2.88,0,0,0,38.06,56.9Z"/><path class="cls-1" d="M23.26,56.9a3,3,0,0,0,2.9-2.9V40.7a2.9,2.9,0,0,0-2.9-2.9,3,3,0,0,0-2.9,2.9V54.1A3,3,0,0,0,23.26,56.9Z"/><path class="cls-1" d="M52.76,56.9a3,3,0,0,0,2.9-2.9V40.7a2.9,2.9,0,0,0-2.9-2.9,3,3,0,0,0-2.9,2.9V54.1A3,3,0,0,0,52.76,56.9Z"/></g></g></svg>