<?xml version="1.0" encoding="iso-8859-1"?>
<!-- Generator: Adobe Illustrator 19.0.0, SVG Export Plug-In . SVG Version: 6.00 Build 0)  -->
<svg version="1.1" id="Layer_1" xmlns="http://www.w3.org/2000/svg" xmlns:xlink="http://www.w3.org/1999/xlink" x="0px" y="0px"
	 viewBox="0 0 512 512" style="enable-background:new 0 0 512 512;" xml:space="preserve">
<path style="fill:#6D6E71;" d="M283.268,185.223c-10.003,0-18.113-8.11-18.113-18.113v-44.883c0-10.003,8.11-18.113,18.113-18.113
	c10.003,0,18.113,8.11,18.113,18.113v44.883C301.381,177.113,293.272,185.223,283.268,185.223z"/>
<path style="fill:#808285;" d="M147.358,185.223c-10.003,0-18.113-8.11-18.113-18.113v-44.883c0-10.003,8.11-18.113,18.113-18.113
	c10.003,0,18.113,8.11,18.113,18.113v44.883C165.471,177.113,157.362,185.223,147.358,185.223z"/>
<path style="fill:#F2C500;" d="M311.745,140.34H118.882c-10.003,0-18.113-8.11-18.113-18.113V62.633
	c0-10.003,8.11-18.113,18.113-18.113h192.863c10.003,0,18.113,8.11,18.113,18.113v59.595
	C329.858,132.23,321.749,140.34,311.745,140.34z"/>
<path style="fill:#F59D00;" d="M311.745,44.52h-75.233v95.821h75.233c10.003,0,18.113-8.11,18.113-18.113V62.633
	C329.858,52.629,321.749,44.52,311.745,44.52z"/>
<path style="fill:#57BDB7;" d="M171.556,302.673c-165.141,0-161.967,3.281-169.107-9.019c-3.241-5.584-3.266-12.469-0.065-18.076
	l67.055-117.446c3.039-5.324,8.565-8.749,14.685-9.102c6.117-0.353,12.003,2.413,15.637,7.35l86.387,117.446
	c4.048,5.502,4.655,12.813,1.572,18.908C184.636,298.831,178.386,302.673,171.556,302.673z"/>
<path style="fill:#D1D3D4;" d="M412.51,302.673H171.556c-5.761,0-11.177-2.74-14.591-7.381L70.579,177.846
	c-4.048-5.502-4.655-12.813-1.572-18.908C72.089,152.844,78.34,149,85.17,149H350.89c6.733,0,12.911,3.735,16.04,9.698
	l61.621,117.446c2.945,5.615,2.741,12.362-0.539,17.787C424.729,299.357,418.851,302.673,412.51,302.673z"/>
<path style="fill:#BCBEC0;" d="M428.55,276.144l-61.621-117.446c-3.129-5.963-9.307-9.698-16.04-9.698H236.513v153.672H412.51
	c6.341,0,12.22-3.316,15.5-8.741C431.291,288.505,431.495,281.758,428.55,276.144z"/>
<path style="fill:#A7A9AC;" d="M236.513,302.57c10.003,0,18.113-8.11,18.113-18.113V149h-36.226v135.457
	C218.399,294.46,226.509,302.57,236.513,302.57z"/>
<path style="fill:#939598;" d="M236.513,149v153.57c10.003,0,18.113-8.11,18.113-18.113V149H236.513z"/>
<path style="fill:#65C6BB;" d="M493.887,420.113H388.822c-10.003,0-18.113-8.11-18.113-18.113c0-38.644-58.496-38.655-58.496,0
	c0,10.003-8.11,18.113-18.113,18.113h-95.5c-10.003,0-18.113-8.11-18.113-18.113c0-38.646-58.509-38.645-58.509,0
	c0,10.003-8.11,18.113-18.113,18.113h-85.75C8.11,420.113,0,412.003,0,402V284.56c0-10.003,8.11-18.113,18.113-18.113h475.774
	c10.003,0,18.113,8.11,18.113,18.113V402C512,412.003,503.89,420.113,493.887,420.113z"/>
<path style="fill:#57BDB7;" d="M493.887,266.447H236.513v153.666h57.587c10.003,0,18.113-8.11,18.113-18.113
	c0-38.638,58.496-38.654,58.496,0c0,10.003,8.11,18.113,18.113,18.113h105.065c10.003,0,18.113-8.11,18.113-18.113V284.56
	C512,274.556,503.89,266.447,493.887,266.447z"/>
<path style="fill:#F59D00;" d="M94.952,420.119H18.113C8.11,420.119,0,412.009,0,402.006v-76.839h76.839
	c10.003,0,18.113,8.11,18.113,18.113V420.119z"/>
<path style="fill:#808285;" d="M151.231,467.48c-36.107,0-65.482-29.375-65.482-65.48c0-36.1,29.375-65.47,65.482-65.47
	s65.48,29.369,65.48,65.47C216.712,438.107,187.338,467.48,151.231,467.48z"/>
<path style="fill:#6D6E71;" d="M341.467,467.48c-36.106,0-65.482-29.375-65.482-65.48c0-36.1,29.375-65.47,65.482-65.47
	c36.1,0,65.468,29.369,65.468,65.47C406.935,438.107,377.566,467.48,341.467,467.48z"/>
<path style="fill:#E87E04;" d="M512,361.398h-76.839c-10.003,0-18.113-8.11-18.113-18.113v-76.839h76.839
	c10.003,0,18.113,8.11,18.113,18.113V361.398z"/>
<path style="fill:#57BDB7;" d="M267.672,361.394h-23.345c-10.003,0-18.113-8.11-18.113-18.113s8.11-18.113,18.113-18.113h23.346
	c10.003,0,18.113,8.11,18.113,18.113S277.677,361.394,267.672,361.394z"/>
<path style="fill:#1DA49C;" d="M267.672,325.167h-23.345c-2.803,0-5.446,0.654-7.815,1.792v32.642
	c2.369,1.136,5.013,1.792,7.815,1.792h23.346c10.003,0,18.113-8.11,18.113-18.113C285.785,333.277,277.677,325.167,267.672,325.167z
	"/>
<g>
</g>
<g>
</g>
<g>
</g>
<g>
</g>
<g>
</g>
<g>
</g>
<g>
</g>
<g>
</g>
<g>
</g>
<g>
</g>
<g>
</g>
<g>
</g>
<g>
</g>
<g>
</g>
<g>
</g>
</svg>
