<?xml version="1.0" encoding="iso-8859-1"?>
<!-- Generator: Adobe Illustrator 19.0.0, SVG Export Plug-In . SVG Version: 6.00 Build 0)  -->
<svg version="1.1" id="Layer_1" xmlns="http://www.w3.org/2000/svg" xmlns:xlink="http://www.w3.org/1999/xlink" x="0px" y="0px"
	 viewBox="0 0 295.24 295.24" style="enable-background:new 0 0 295.24 295.24;" xml:space="preserve">
<g>
	<g>
		<g>
			<path d="M280.952,57.144h-14.286V0.001H104.762v57.143H90.476c-7.876,0-14.286,6.41-14.286,14.286v14.286h-9.524V71.43
				c0-7.876-6.41-14.286-14.286-14.286H14.286C6.41,57.144,0,63.553,0,71.43v166.667c0,7.876,6.41,14.286,14.286,14.286h38.095
				c7.876,0,14.286-6.41,14.286-14.286v-9.524h9.524v9.524c0,7.876,6.41,14.286,14.286,14.286h14.286v42.857h161.905v-42.857h14.286
				c7.876,0,14.286-6.41,14.286-14.286V71.43C295.238,63.553,288.829,57.144,280.952,57.144z M57.143,238.095
				c0,2.629-2.133,4.762-4.762,4.762H14.286c-2.629,0-4.762-2.133-4.762-4.762V71.43c0-2.629,2.133-4.762,4.762-4.762h38.095
				c2.629,0,4.762,2.133,4.762,4.762V238.095z M76.191,219.048h-9.524V95.238h9.524V219.048z M114.286,9.524h142.857v47.619H114.286
				V9.524z M104.762,214.287v9.524H100v-14.286h171.429v14.286h-4.762v-9.524H104.762z M257.143,285.714H114.286v-61.904h142.857
				V285.714z M285.715,238.095h-0.001c0,2.629-2.133,4.762-4.762,4.762h-14.286v-9.524h14.286v-33.333H90.476v33.333h14.286v9.524
				H90.476c-2.629,0-4.762-2.133-4.762-4.762V71.43c0-2.629,2.133-4.762,4.762-4.762h14.286h161.905h14.286
				c2.629,0,4.762,2.133,4.762,4.762V238.095z"/>
			<rect x="100" y="123.811" width="9.524" height="9.524"/>
			<rect x="119.048" y="123.811" width="9.524" height="9.524"/>
			<rect x="138.095" y="123.811" width="9.524" height="9.524"/>
			<rect x="157.143" y="123.811" width="9.524" height="9.524"/>
			<rect x="100" y="142.857" width="9.524" height="9.524"/>
			<rect x="119.048" y="142.857" width="9.524" height="9.524"/>
			<rect x="138.095" y="142.857" width="9.524" height="9.524"/>
			<rect x="157.143" y="142.857" width="9.524" height="9.524"/>
			<rect x="100" y="161.905" width="9.524" height="9.524"/>
			<rect x="119.048" y="161.905" width="9.524" height="9.524"/>
			<rect x="138.095" y="161.905" width="9.524" height="9.524"/>
			<rect x="157.143" y="161.905" width="9.524" height="9.524"/>
			<path d="M185.714,171.43h85.714v-47.619h-85.714V171.43z M195.238,133.334h66.667v28.571h-66.667V133.334z"/>
			<rect x="123.81" y="19.048" width="123.81" height="9.524"/>
			<rect x="123.81" y="38.095" width="123.81" height="9.524"/>
			<rect x="123.81" y="266.667" width="123.81" height="9.524"/>
			<rect x="123.81" y="247.62" width="123.81" height="9.524"/>
		</g>
	</g>
</g>
<g>
</g>
<g>
</g>
<g>
</g>
<g>
</g>
<g>
</g>
<g>
</g>
<g>
</g>
<g>
</g>
<g>
</g>
<g>
</g>
<g>
</g>
<g>
</g>
<g>
</g>
<g>
</g>
<g>
</g>
</svg>
