<svg xmlns="http://www.w3.org/2000/svg" viewBox="0 0 682.68 699.93"><defs><style>.cls-1{fill:#fcfdfd;stroke:#fcfdfd;}.cls-1,.cls-10,.cls-11,.cls-12,.cls-13,.cls-14,.cls-15,.cls-16,.cls-17,.cls-18,.cls-19,.cls-2,.cls-20,.cls-21,.cls-22,.cls-23,.cls-24,.cls-25,.cls-26,.cls-27,.cls-28,.cls-29,.cls-3,.cls-30,.cls-31,.cls-32,.cls-33,.cls-34,.cls-35,.cls-36,.cls-4,.cls-5,.cls-6,.cls-7,.cls-8,.cls-9{stroke-miterlimit:10;stroke-width:0.23px;}.cls-2{fill:#231f20;stroke:#231f20;}.cls-3{fill:#fdfdfd;stroke:#fdfdfd;}.cls-4{fill:#fefefe;stroke:#fefefe;}.cls-5{fill:#ee4737;stroke:#ee4737;}.cls-6{fill:#fcfdfc;stroke:#fcfdfc;}.cls-7{fill:#fbfdfc;stroke:#fbfdfc;}.cls-8{fill:#fcfdfb;stroke:#fcfdfb;}.cls-9{fill:#ef4737;stroke:#ef4737;}.cls-10{fill:#ee4739;stroke:#ee4739;}.cls-11{fill:#fcfcf8;stroke:#fcfcf8;}.cls-12{fill:#fbfcfa;stroke:#fbfcfa;}.cls-13{fill:#fbfcf7;stroke:#fbfcf7;}.cls-14{fill:#f24738;stroke:#f24738;}.cls-15{fill:#fff;stroke:#fff;}.cls-16{fill:#ed4740;stroke:#ed4740;}.cls-17{fill:#ee4738;stroke:#ee4738;}.cls-18{fill:#ed4736;stroke:#ed4736;}.cls-19{fill:#ee4636;stroke:#ee4636;}.cls-20{fill:#f04838;stroke:#f04838;}.cls-21{fill:#ee4837;stroke:#ee4837;}.cls-22{fill:#f04436;stroke:#f04436;}.cls-23{fill:#ef4738;stroke:#ef4738;}.cls-24{fill:#241f20;stroke:#241f20;}.cls-25{fill:#fdfefe;stroke:#fdfefe;}.cls-26{fill:#221f20;stroke:#221f20;}.cls-27{fill:#202020;stroke:#202020;}.cls-28{fill:#212021;stroke:#212021;}.cls-29{fill:#fcfbfc;stroke:#fcfbfc;}.cls-30{fill:#fdfcfd;stroke:#fdfcfd;}.cls-31{fill:#fefdfe;stroke:#fefdfe;}.cls-32{fill:#fdfbfc;stroke:#fdfbfc;}.cls-33{fill:#363334;stroke:#363334;}.cls-34{fill:#212020;stroke:#212020;}.cls-35{fill:#2b2a2a;stroke:#2b2a2a;}.cls-36{fill:#212121;stroke:#212121;}</style></defs><title>Asset 1</title><g id="Layer_2" data-name="Layer 2"><g id="Layer_1-2" data-name="Layer 1"><path class="cls-1" d="M0,0H25.62C14.78,2.22,5.91,9.36,0,18.72V0Z" transform="translate(0.12 0.12)"/><path class="cls-2" d="M25.62,0H36.46c0,10.1,0,20.45-.24,30.55C29.56,32,21.43,35.72,22.67,44.1c-1.24,7.64,9.11,15,14.53,8.13,6.16-9.85,6.9-22.17,12.07-32.52,3.45-8.62,10.6-15,18.48-19.71H100c22.91,13.3,26.85,45.09,17,67.75-5.92,14.54-22.18,20.94-37,20.7,0-10.84,0-21.44.25-32,5.42-1.73,13.3-2.71,14.29-9.86,3-8.62-4.44-21.92-14.54-16.26C71.69,41.14,72.19,56.17,65.29,68,55.43,89.93,21.68,92.39,6.9,74.65A95.5,95.5,0,0,1,0,65V18.72C5.91,9.36,14.78,2.22,25.62,0Z" transform="translate(0.12 0.12)"/><path class="cls-3" d="M36.46,0H67.75c-7.88,4.68-15,11.09-18.48,19.71C44.1,30.06,43.36,42.38,37.2,52.23c-5.42,6.9-15.77-.49-14.53-8.13C21.43,35.72,29.56,32,36.22,30.55c.24-10.1.24-20.45.24-30.55Z" transform="translate(0.12 0.12)"/><path class="cls-4" d="M100,0H135.5V699.7h-16c-.25-14.78.25-29.57,0-44.35-.49-10.59-3-22.17-11.33-29.56-9.86-8.13-24.39-8.63-36.22-4.44-7.39,2.47-11.33,9.61-14,16.51-7.64-18.23-32-21.93-47.06-11.09-5.67,3.94-8.62,10.6-10.84,17v-37.2c24.64,0,49.27.25,73.91,0,15.28-.25,32.52-4.93,41.15-18.48,8.87-14.78,9.11-34.24,1.47-49.27-8.13-15.28-26.36-20.45-42.37-20.7-24.89-.24-49.52,0-74.16-.24V479.19c7.64,13.8,21.43,22.92,36.71,25.87,20.69,4.19,43.61,3.7,62.82-6.16C127.13,484.61,130.08,440,105,422c-9.36-7.15-21.43-9.37-32.76-10.84-.25,10.34-.25,20.69,0,30.79,6.16,1.73,13,3,17.49,8.13,4.68,5.42,3.2,14.79-2.46,19.22-7.15,5.42-16.76,6.41-25.63,6.9-10.1,0-20.69-.74-29.32-5.91-6.65-3.7-9.36-13.06-4.92-19.22,3.69-5.91,11.08-6.9,17.24-8.38.5-10.35.5-20.45.25-30.8-9.36,1.24-19.22,1.73-27.59,6.9C9.85,423.51,4.68,430.41,0,437.31V401.09q59.51-.36,119,0a158.31,158.31,0,0,0-.25-30.55q-22.9.38-45.82,0c-.25-8.62-.25-17.49,0-26.11,15.27-.25,30.79-.25,46.07,0a294.62,294.62,0,0,0,.24-29.57c-39.66-.24-79.57,0-119.24,0V271c39.67,11.09,79.33,22.67,119.24,33.26.25-10.1.25-20.45,0-30.8L100,268.3c-.5-10.84-.25-21.68-.25-32.28,6.65-2.21,13.31-4.18,19.71-6.4,0-10.35,0-20.7-.25-31C79.33,209.17,39.67,220.26,0,231.59V190.2c39.67,0,79.58.25,119.24,0,.25-8.62.25-17.49,0-26.12-24.14-.49-48.53,0-72.68-.24,23.66-9.86,48.54-17.25,72.68-26.12.25-13.79.5-27.35-.24-41.14q-59.5.36-119,0V65a95.5,95.5,0,0,0,6.9,9.61C21.68,92.39,55.43,89.93,65.29,68c6.9-11.83,6.4-26.86,14.78-37.7,10.1-5.66,17.49,7.64,14.54,16.26-1,7.15-8.87,8.13-14.29,9.86-.25,10.59-.25,21.19-.25,32,14.78.24,31-6.16,37-20.7C126.88,45.09,122.94,13.3,100,0Z" transform="translate(0.12 0.12)"/><path class="cls-5" d="M135.5,0h547V542H573.56c8.62-1.23,19-2.71,23.65-11.33,9.11-16.26,8.37-35.48,10.59-53.47,8.13-1.47,18.48-.49,24.64-7.39,10.1-11.58,15-29.56,8.13-43.85-3.7-7.89-13.31-8.13-20.45-10.1,7.14-17.74,18.72-34.25,21.19-53.71,1.23-19.22,1-40.16-10.35-56.91-13.06-19.22-28.83-37.21-48.54-50-2.21-30.06-7.88-60.85-23.89-87-5.92-10.35-15-18.48-24.39-25.62,2.21-12.81,2.21-26.12-1.48-38.68,8.37.25,19.71,5.42,25.37-3.2,2-7.89-6.89-11.34-12.81-13.31C526.5,82,507,80.07,487.57,78.1c-64.3-6.16-129.34-4.68-192.91,6.9-7.88,1.72-16,3-22.91,7.39-3,4.68-1,10.59-.74,15.77a153.39,153.39,0,0,0,23.65-2c-3.45,12.56-1,25.13-.74,37.69-7.14,6.41-15.77,12.07-21.43,20.2-18,24.89-24.39,55.68-27.35,85.5-15,7.39-26.36,19.95-37.2,32.27-17.74,21.19-27.35,49.77-22.42,77.36,1.72,20.45,11.82,38.68,21.19,56.42-9.86.49-23.16-1.72-29.32,8.13-7.89,15.77-1.73,36.46,11.58,47.8,9.36,5.17,20.69,2.71,31,3.45,1.73,16.26,1.73,33.26,7.64,48.78,2.71,8.13,9.36,14,16.51,18-36.22.5-72.44.25-108.66.25V0Z" transform="translate(0.12 0.12)"/><path class="cls-6" d="M294.66,85c63.57-11.58,128.61-13.06,192.91-6.9,19.46,2,38.93,3.94,57.65,9.36,5.92,2,14.78,5.42,12.81,13.31-5.66,8.62-17,3.45-25.37,3.2,3.69,12.56,3.69,25.87,1.48,38.68,9.36,7.14,18.47,15.27,24.39,25.62,16,26.12,21.68,56.91,23.89,87,19.71,12.81,35.48,30.8,48.54,50C642.29,322,642.54,343,641.31,362.17c-2.47,19.46-14,36-21.19,53.71,7.14,2,16.75,2.21,20.45,10.1,6.9,14.29,2,32.27-8.13,43.85-6.16,6.9-16.51,5.92-24.64,7.39-2.22,18-1.48,37.21-10.59,53.47-4.68,8.62-15,10.1-23.65,11.33-10.35,0-20.7,0-31-.25-8.62-1.47-19.71-1.47-24.63-10.1-5.92-11.82-2.47-25.62-.5-37.94-8.62,4.44-20.2,7.39-28.08-.25-8.13-6.4-6.16-17.73-4.69-26.85-15.52-2.46-31.78-4.19-46.07-10.84-8.62-3.7-1.48-13.06.74-19,5.18-8.62,3.94-24.15,16.76-25.13,21.68-.74,42.37,7.88,63.56,9.85.25-6.65-5.17-18.23,4.19-20.45,11.82-2.46,24.64-2.21,35.72,2.47,8.13,2.95,4.68,13.3,5.67,20.2a171.62,171.62,0,0,0,22.66-2.71c2.47-20.69,20.21-33.75,27.6-52.23,7.88-16.51,5.42-35.72-1-52.23-6.9-17-17.24-32.77-32-43.86-2.95,5.18-4.92,13.06-11.82,14.54-5.91,2-14.78.49-16.51-6.65-1.72-14,2.71-27.84,3.45-41.64,2.71-27.35-9.36-54.45-27.35-74.4-19-18.48-46.56-23.16-71.69-26.86-32-2.71-64.8-4.68-96.33,2.71-21.68,4.93-43.36,11.83-62.33,23.9-13.31,8.62-20.95,23.41-26.12,37.94-6.9,19.71-4.68,41.15-2.22,61.35.25,4.93,1.73,11.33-2.95,14.78-5.18,4.19-13.8,3.45-18-1.72-2.46-4.19-3.69-8.87-5.17-13.31-24.64,19.47-43.12,49.52-41.89,81.55.5,19,12.82,34.49,23.66,49,5.91,7.64,7.39,17.25,7.88,26.85,15,2.22,30.06,2.47,45.09,2.22.49-5.42,1.23-10.59,2-15.77,12.07-6.16,26.36-8.37,39.42-4.68,5.42,1,5.17,7.39,6.89,11.58,12.32-1.48,24.89-6.16,37.45-3.69,6.66,1.72,7.89,9.11,10.1,14.78,1.73,6.4,5.92,11.58,9.12,17.49,2.71,4.19,1,10.6-3.94,12.32-13.8,5.67-28.58,6.9-43.12,9.61-3.45.49-6.16,2.71-9.11,4.68-5.92,4.43-13.55,4.68-20.7,6.9.74,17.24,8.38,34.74,3,52-1.73,7.39-9.61,10.6-16,13.31-16.75,1.48-34,2-51,.24-7.15-3.94-13.8-9.85-16.51-18-5.91-15.52-5.91-32.52-7.64-48.78-10.35-.74-21.68,1.72-31-3.45-13.31-11.34-19.47-32-11.58-47.8,6.16-9.85,19.46-7.64,29.32-8.13-9.37-17.74-19.47-36-21.19-56.42-4.93-27.59,4.68-56.17,22.42-77.36,10.84-12.32,22.17-24.88,37.2-32.27,3-29.82,9.36-60.61,27.35-85.5,5.66-8.13,14.29-13.79,21.43-20.2-.24-12.56-2.71-25.13.74-37.69a153.39,153.39,0,0,1-23.65,2c-.25-5.18-2.22-11.09.74-15.77,6.9-4.43,15-5.67,22.91-7.39Z" transform="translate(0.12 0.12)"/><path class="cls-5" d="M308.46,102.49c18-2.46,35.72-5.91,53.71-7.64,52.48-4.18,105.45-1.47,157.43,6.66a97.94,97.94,0,0,0-4.19,30.3c-13.3-3.7-25.87-9.12-39.17-11.83-40.16-8.87-82.29-7.39-122.45,0-14.78,2.47-28.33,8.38-42.38,13.06a105.46,105.46,0,0,0-3-30.55Z" transform="translate(0.12 0.12)"/><path class="cls-2" d="M0,96.58q59.51.36,119,0c.74,13.79.49,27.35.24,41.14-24.14,8.87-49,16.26-72.68,26.12,24.15.24,48.54-.25,72.68.24.25,8.63.25,17.5,0,26.12-39.66.25-79.57,0-119.24,0V148.56c23.16-8.62,46.56-16.26,69.48-24.88-23.16-1-46.32-.25-69.48-.49V96.58Z" transform="translate(0.12 0.12)"/><path class="cls-4" d="M0,123.19c23.16.24,46.32-.5,69.48.49C46.56,132.3,23.16,139.94,0,148.56V123.19Z" transform="translate(0.12 0.12)"/><path class="cls-5" d="M362.17,140.43c31.53-7.39,64.3-5.42,96.33-2.71,25.13,3.7,52.72,8.38,71.69,26.86,18,19.95,30.06,47,27.35,74.4-.74,13.8-5.17,27.6-3.45,41.64,1.73,7.14,10.6,8.62,16.51,6.65,6.9-1.48,8.87-9.36,11.82-14.54,14.79,11.09,25.13,26.86,32,43.86,6.41,16.51,8.87,35.72,1,52.23-7.39,18.48-25.13,31.54-27.6,52.23a171.62,171.62,0,0,1-22.66,2.71c-1-6.9,2.46-17.25-5.67-20.2-11.08-4.68-23.9-4.93-35.72-2.47-9.36,2.22-3.94,13.8-4.19,20.45-21.19-2-41.88-10.59-63.56-9.85-12.82,1-11.58,16.51-16.76,25.13-2.22,5.91-9.36,15.27-.74,19,14.29,6.65,30.55,8.38,46.07,10.84-1.47,9.12-3.44,20.45,4.69,26.85,7.88,7.64,19.46,4.69,28.08.25-2,12.32-5.42,26.12.5,37.94,4.92,8.63,16,8.63,24.63,10.1-82.29.25-164.82.74-247.36-.24,6.41-2.71,14.29-5.92,16-13.31,5.42-17.24-2.22-34.74-3-52,7.15-2.22,14.78-2.47,20.7-6.9,2.95-2,5.66-4.19,9.11-4.68,14.54-2.71,29.32-3.94,43.12-9.61,4.93-1.72,6.65-8.13,3.94-12.32-3.2-5.91-7.39-11.09-9.12-17.49-2.21-5.67-3.44-13.06-10.1-14.78-12.56-2.47-25.13,2.21-37.45,3.69-1.72-4.19-1.47-10.59-6.89-11.58-13.06-3.69-27.35-1.48-39.42,4.68-.74,5.18-1.48,10.35-2,15.77-15,.25-30.06,0-45.09-2.22-.49-9.6-2-19.21-7.88-26.85-10.84-14.54-23.16-30.06-23.66-49-1.23-32,17.25-62.08,41.89-81.55,1.48,4.44,2.71,9.12,5.17,13.31,4.19,5.17,12.81,5.91,18,1.72,4.68-3.45,3.2-9.85,2.95-14.78-2.46-20.2-4.68-41.64,2.22-61.35,5.17-14.53,12.81-29.32,26.12-37.94,19-12.07,40.65-19,62.33-23.9Z" transform="translate(0.12 0.12)"/><path class="cls-6" d="M380.4,159.16c23.4-4.19,47.06-1,70.46,1.72,19.47,2.46,39.42,10.6,51,27.1,13.06,16.26,14.29,38.44,13.55,58.39-.24,15.52-12.81,29.07-27.84,31.54-27.59,4.68-53.71-10.6-81.3-8.62-18.48-.25-35.48,9.36-54,8.37-14.78.49-31.53-2.71-40.9-15-7.88-9.61-5.91-23.16-5.17-34.74,1.23-19.95,11.33-39.66,27.59-51.73,13.56-9.86,30.31-14.29,46.57-17Z" transform="translate(0.12 0.12)"/><path class="cls-5" d="M387.79,176.16c20.45-.74,40.9-1.48,61.1.74,18.23,1.72,37.2,11.82,44.1,29.56,5.67,13.8,9.12,29.81,3.94,44.35-4.68,9.36-17.24,9.11-26.36,9.11-21.68-.24-42.37-10.34-64.3-8.13-20.94,0-40.41,12.57-61.59,8.87-10.85-.49-20.95-8.13-22.42-19.21-2.22-16.27,2-34.25,13.05-46.57,13.8-13.8,34-17.25,52.48-18.72Z" transform="translate(0.12 0.12)"/><path class="cls-2" d="M0,231.59c39.67-11.33,79.33-22.42,119.24-33,.25,10.34.25,20.69.25,31-6.4,2.22-13.06,4.19-19.71,6.4,0,10.6-.25,21.44.25,32.28l19.21,5.17c.25,10.35.25,20.7,0,30.8C79.33,293.68,39.67,282.1,0,271V231.59Z" transform="translate(0.12 0.12)"/><path class="cls-3" d="M24.64,252.53c15.77-4.19,31.78-6.65,47.79-9.61.25,5.92.25,12.08,0,18-16-2.71-31.78-5.67-47.79-8.38Z" transform="translate(0.12 0.12)"/><path class="cls-7" d="M235,299.59c6.9-2,14.78-.74,19.71,4.93,11.83,12.32,12.56,32.27,5.91,47.55-4.68,10.59-19,18.23-29.32,10.1-19-14.78-17.73-50.76,3.7-62.58Z" transform="translate(0.12 0.12)"/><path class="cls-8" d="M394.94,301.31c21.43-2.71,43.6-.24,64.3,5.67,16.75,5.17,23.16,24.39,22.17,40.41,0,12.07-4.68,27.59-18.23,30.05-19,2.71-37.69-3.94-56.67-2.95-18-.74-35.47,6.4-53.21,3.69-10.6-2-16.51-13.3-16.51-23.4-.25-13.31-2-29.08,8.38-39.18,13.3-12.56,32.77-11.82,49.77-14.29Z" transform="translate(0.12 0.12)"/><path class="cls-7" d="M577.5,304c18.72-4.18,29.07,18,27.84,33.51.74,14.78-8.87,35-26.36,32.77-17-4.19-21.93-25.13-20-40.16,1.72-10.84,7.14-22.91,18.48-26.12Z" transform="translate(0.12 0.12)"/><path class="cls-9" d="M395.43,309.2c19-1.73,38.19,1,56.91,4.93A25.89,25.89,0,0,1,472.54,340c-.24,8.38,1.73,19.47-6.16,25.63-10.34,6.4-23.65,3.69-35.23,1.48-18.72-4.19-38.19-1.48-56.66,2-9.12.74-21.93,2.95-27.84-6.16-3-8.13-1.73-17-1.73-25.63a23.14,23.14,0,0,1,14.78-21.92c11.34-4.19,23.66-4.44,35.73-6.16Z" transform="translate(0.12 0.12)"/><path class="cls-10" d="M232.58,313.63c9.36-4.93,25.86-1,26.11,11.58-.49,16.51-28.33,18.48-33.26,3.94-2.46-6.16,1.73-12.81,7.15-15.52Z" transform="translate(0.12 0.12)"/><path class="cls-2" d="M0,314.86c39.67,0,79.58-.24,119.24,0a294.62,294.62,0,0,1-.24,29.57c-15.28-.25-30.8-.25-46.07,0-.25,8.62-.25,17.49,0,26.11q22.91.38,45.82,0a158.31,158.31,0,0,1,.25,30.55q-59.5-.36-119,0V371.53c14.29,0,28.33-.25,42.62,0a248.06,248.06,0,0,0,.25-27.1q-21.43-.37-42.87,0V314.86Z" transform="translate(0.12 0.12)"/><path class="cls-5" d="M572.32,318.56c9.61-4.93,26.37-1.23,26.12,11.58-.49,15-23.65,18.23-31.29,6.9-4.68-6.16-1.23-15.28,5.17-18.48Z" transform="translate(0.12 0.12)"/><path class="cls-11" d="M355,330.39c7.89-3.7,17-8.63,25.87-7.15.49,1,1.48,3.45,2,4.44-3.45,1.47-6.9,2.71-10.34,3.94,1.72,8.87,7.14,17,5.17,26.36-9.12-2.46-8.38-14.54-11.83-21.68-3.69-.49-7.63-.74-11.33-1.23a29.86,29.86,0,0,0,.49-4.68Z" transform="translate(0.12 0.12)"/><path class="cls-12" d="M378.43,347.39c-1.73-9.37,2.22-20.45,11.09-24.89,7.14-.74,14.53,0,21.92-.24,1.23,5.17,2.47,10.34,3.7,15.27,1.72-4.68,3.45-9.36,4.93-14a57.2,57.2,0,0,0,6.15-1.48,170.84,170.84,0,0,1,3.7,18.23A123.74,123.74,0,0,0,436.33,322c1.72,0,5.17.49,6.89.49-3,11.83-5.91,24.39-12.56,34.49-7.15,1.73-5.91-8.37-8.13-12.56a99.78,99.78,0,0,0-4.93,11.82c-1.48,0-4.19.25-5.67.25-1.47-5.42-2.46-10.84-3.69-16.51-3.2,6.16-4.44,15-12.32,16.76-7.14,2.21-15.52-2-17.49-9.36Z" transform="translate(0.12 0.12)"/><path class="cls-13" d="M450.62,328.17c3.2-2,9.6-5.42,11.57-.25-2.95,10.6-7.39,20.94-6.15,32-4.44-1.23-9.61-1.72-13.31-4.93,1.23-5.17,6.41-8.13,7.64-13.3,2.22-4.44-.49-9.12.25-13.55Z" transform="translate(0.12 0.12)"/><path class="cls-14" d="M388.28,348.37c-6.9-6.65.25-21.68,10.84-18.23,2.47,7.39-.24,22.91-10.84,18.23Z" transform="translate(0.12 0.12)"/><path class="cls-15" d="M0,344.43q21.44-.37,42.87,0a248.06,248.06,0,0,1-.25,27.1c-14.29-.25-28.33,0-42.62,0v-27.1Z" transform="translate(0.12 0.12)"/><path class="cls-7" d="M388.28,405.53c8.63-13.06,29.08-14.29,40.16-3.7,6.9,6.16,8.62,16.76,5.67,25.13-2.47,6.16-9.12,9.12-12.57,14.29-.74,5.67-.24,11.34,0,16.76,7.39,2.46,14.79,4.43,21.68,7.88,9.61,4.19,8.13,20.94-2.21,22.67-9.37,2-18.23-3.21-27.35-4.68-13.3-2-25.62,7.63-38.93,4.18-8.13-3.45-8.37-16.5-1.23-20.94s15.52-5.91,22.91-9.61c2-7.14,3-17-4.18-22.17-8.87-6.9-10.6-20.69-4-29.81Z" transform="translate(0.12 0.12)"/><path class="cls-16" d="M414.89,402.57c8.62-4.19,15.28,10.35,5.42,12.81-8.13,3.7-12.32-9.6-5.42-12.81Z" transform="translate(0.12 0.12)"/><path class="cls-5" d="M528.22,410c1-3.45,5.92-3.45,8.87-3.94,6.65,0,14.29.74,19,5.91,1.73,19.47-1,40.41-10.1,57.9-7.39,3.45-15.77-1.72-23.16-2.95.25-10.11,6.9-18.48,7.89-28.34,1-9.61-4.44-19-2.47-28.58Z" transform="translate(0.12 0.12)"/><path class="cls-5" d="M288.75,414.65c7.64-5.43,17.49-6.9,26.11-2.72,0,7.15-1.47,14.54-2.46,21.69-1.23,11.08,5.67,20.44,7.88,31a82.38,82.38,0,0,1-19,3.2c-6.65-17-11.33-35-12.56-53.21Z" transform="translate(0.12 0.12)"/><path class="cls-2" d="M17.25,418.83c8.37-5.17,18.23-5.66,27.59-6.9.25,10.35.25,20.45-.25,30.8-6.16,1.48-13.55,2.47-17.24,8.38-4.44,6.16-1.73,15.52,4.92,19.22,8.63,5.17,19.22,5.91,29.32,5.91,8.87-.49,18.48-1.48,25.63-6.9,5.66-4.43,7.14-13.8,2.46-19.22-4.44-5.17-11.33-6.4-17.49-8.13-.25-10.1-.25-20.45,0-30.79,11.33,1.47,23.4,3.69,32.76,10.84,25.13,18,22.18,62.57-5.42,76.86-19.21,9.86-42.13,10.35-62.82,6.16C21.43,502.11,7.64,493,0,479.19V437.31c4.68-6.9,9.85-13.8,17.25-18.48Z" transform="translate(0.12 0.12)"/><path class="cls-5" d="M336.05,420.31c8.87-1.23,19-4.93,27.6-.49a100.81,100.81,0,0,1,10.1,21.43c2,5.42-4.44,6.9-8.13,7.64-12.57,2.46-25.13,4.93-37.94,5.67-5.67-6.9-6.66-17.25-5.92-25.87.5-7.15,9.36-6.41,14.29-8.38Z" transform="translate(0.12 0.12)"/><path class="cls-5" d="M455.3,423c2.95-5.17,9.85-3.45,14.78-3.2,17.74,3.2,35,9.11,53,11.58,1.72,10.1-3.2,19.71-6.65,28.82-18.23-.49-36-4.18-54.21-6.16-5.91-1.47-14.53-1.23-17-8.13,2.46-7.88,6.4-15.52,10.1-22.91Z" transform="translate(0.12 0.12)"/><path class="cls-5" d="M186.5,432.88c2.22-5.18,7.89-6.66,12.82-6.66,24.14-.49,47.79,5.67,71.69,4.69,3.7.73,8.38-1.73,11.33,1.23A247.71,247.71,0,0,1,288,459.73c-22.91,1.48-45.83,4.44-68.74,4.19-7.88-.49-16.26-.25-23.4-4.19-7.89-5.91-13.06-17.24-9.37-26.85Z" transform="translate(0.12 0.12)"/><path class="cls-5" d="M608.54,431.15c8.38-5.42,23.16-1.72,23.16,9.86,1,11.82-10.84,19.95-21.44,20.94a353.71,353.71,0,0,1-53.46,1.48c2-9.86,4.68-19.47,6.16-29.57a153.56,153.56,0,0,1,23.65-3.45c7.15-.49,14.79,4.93,21.93.74Z" transform="translate(0.12 0.12)"/><path class="cls-17" d="M286.28,468.6a68.88,68.88,0,0,1,7.15-.49c2.22,9.61,2.22,19.95,3.7,29.81,1.72,9.61,4.43,18.72,5.42,28.33-1.48.25-4.93.25-6.41.49-7.39-18.47-9.12-38.68-9.86-58.14Z" transform="translate(0.12 0.12)"/><path class="cls-18" d="M496.19,469.34c7.15-1.48,18-.25,18.48,8.87,2,10.1-10.59,16.75-18.72,11.58-8.13-3.45-6.9-16.51.24-20.45Z" transform="translate(0.12 0.12)"/><path class="cls-19" d="M235.53,470.08c2,.25,5.92.49,7.64.74.49,19,5.17,37.45,8.13,56.17-1.72,0-5.17-.25-7.14-.25a199.85,199.85,0,0,1-8.63-56.66Z" transform="translate(0.12 0.12)"/><path class="cls-20" d="M251.55,470.57c2.71.74,5.17,1.23,7.88,2a183.12,183.12,0,0,0,4.19,34.74c1.23,6.41,3.94,12.81,2.46,19.46a57.62,57.62,0,0,0-6.4-.49c-4.68-18.23-8.63-36.71-8.13-55.68Z" transform="translate(0.12 0.12)"/><path class="cls-21" d="M269,470.82h8.38c0,19,4.68,37.2,8.13,55.68-1.73.24-5.42.49-7.15.74-6.4-18-8.62-37.2-9.36-56.42Z" transform="translate(0.12 0.12)"/><path class="cls-18" d="M374,473c3.7-1.48,7.89-3,11.09.24,1.48,3.7-.74,9.61-5.67,8.87-4.92.49-4.68-5.91-5.42-9.11Z" transform="translate(0.12 0.12)"/><path class="cls-22" d="M433.86,470.08c4.93-1.23,9.61,3,8.13,7.88-1.72,4.44-7.14,2.47-10.59,2.22.24-3.45-.49-7.39,2.46-10.1Z" transform="translate(0.12 0.12)"/><path class="cls-23" d="M550.64,473.77h7.89a191.16,191.16,0,0,1-7.89,50c-.49,3.69-5.66,2.22-8.13,3,2.71-17.49,7.89-35,8.13-53Z" transform="translate(0.12 0.12)"/><path class="cls-17" d="M567.89,476.24c2.71-.25,5.67-.49,8.38-.74-1.24,16.75-1.73,35-9.61,50h-5.92c2.22-16.5,7.64-32.52,7.15-49.27Z" transform="translate(0.12 0.12)"/><path class="cls-9" d="M584.4,476h7.14c.74,17.25-2.71,34.49-7.88,50.75-1.73,0-5.18-.24-6.9-.24,2.46-16.76,6.9-33.26,7.64-50.51Z" transform="translate(0.12 0.12)"/><path class="cls-10" d="M525,524.53c4.19-16,5.91-32.28,9.12-48.29l6.89,3.94c-1.47,15.52-3.2,31.29-8.87,45.83-1.72-.5-5.17-1-7.14-1.48Z" transform="translate(0.12 0.12)"/><path class="cls-24" d="M0,517.88c24.64.24,49.27,0,74.16.24,16,.25,34.24,5.42,42.37,20.7,7.64,15,7.4,34.49-1.47,49.27-8.63,13.55-25.87,18.23-41.15,18.48-24.64.25-49.27,0-73.91,0V577c22.91.25,46.07.25,69,0,6.9-.24,14.54-.24,20.21-4.92,7.14-8.13,2.46-23.41-9.37-23.65-26.36-2-53.21-.25-79.82-.74V517.88Z" transform="translate(0.12 0.12)"/><path class="cls-2" d="M135.5,542c36.22,0,72.44.25,108.66-.25,17,1.73,34.24,1.24,51-.24,82.54,1,165.07.49,247.36.24,10.35.25,20.7.25,31,.25H682.45V699.7H135.5V542Z" transform="translate(0.12 0.12)"/><path class="cls-15" d="M0,547.69c26.61.49,53.46-1.24,79.82.74,11.83.24,16.51,15.52,9.37,23.65C83.52,576.76,75.88,576.76,69,577c-22.91.25-46.07.25-69,0V547.69Z" transform="translate(0.12 0.12)"/><path class="cls-4" d="M239.47,569.37c17.5-.25,35-.74,52.48.24V578c-6.9.25-13.55.25-20.2.74v44.59H258.69V578.48c-6.4,0-12.81-.24-19-.24-.25-3-.25-5.92-.25-8.87Z" transform="translate(0.12 0.12)"/><path class="cls-3" d="M316.34,570.35c9.12-2.46,20-1.48,27.6,4.68,13.55,10.35,13.05,34.25-1.48,43.37-14.29,9.85-38.44,4.92-44.1-12.82-5.67-14,2.71-31.78,18-35.23Z" transform="translate(0.12 0.12)"/><path class="cls-3" d="M356.25,569.12c4.19,0,8.63,0,12.82.25,3.2,14,4.43,28.33,8.87,41.88,3.2-13.8,6.15-27.84,9.36-41.88,6.16-.25,12.07-.25,18,0,2.71,14,4.93,28.33,9.86,41.88l8.13-42.13h11.58c-3,18-8.63,35.72-12.07,54-5.92.24-11.58.24-17.5,0-2.95-14.79-5.91-29.57-9.85-44.1-3,14.78-6.65,29.31-9.12,44.1a147.08,147.08,0,0,1-18-.25c-3.21-18-8.63-35.72-12.08-53.71Z" transform="translate(0.12 0.12)"/><path class="cls-3" d="M439.53,569.37c12.56,0,26.11-2.22,37.94,2.71,10.35,4.92,8.13,22.17-3.7,23.16,4.44,2.71,11.34,4.68,11.09,11.08,2,7.89-4.68,14.79-12.07,16-11.09,1.72-22.42,1-33.26.74.25-18,.25-35.73,0-53.71Z" transform="translate(0.12 0.12)"/><path class="cls-3" d="M507.77,569.12h17c7.15,18,14.29,36,20.7,54.2H532.16c-1.23-3.94-2.71-7.88-3.94-11.82-7.63-.74-15.27-.5-23.16-.5-1.47,4.19-3.2,8.13-4.92,12.32H487.57c6.16-18.23,13.8-36,20.2-54.2Z" transform="translate(0.12 0.12)"/><path class="cls-25" d="M549.9,569.37c13.55.49,29.08-3.45,40.66,5.42,7.63,6.9,3,19.71-6.41,22.42,9.36,5.66,9.36,17,11.58,26.36l-13.06-.74c-1.23-5.42-1.48-11.33-3.94-16.51-3.45-5.17-10.35-3.45-15.52-3.94q-.37,10.35,0,20.7c-4.44,0-8.87.24-13.31.24q.38-27,0-54Z" transform="translate(0.12 0.12)"/><path class="cls-3" d="M605.83,573.56c13.06-8.63,37-5.67,39.91,12.56-4.19,0-8.13.49-12.07.25-2-2.47-3.94-5.18-5.91-7.39-4.68-2-9.61-.5-14.29.49-.25,2.95-1.23,8.13,2.95,8.62,9.12,3.2,19.71,3.2,27.11,10.1,6.4,6.9,2.46,19.22-6.16,22.18-14,6.89-38.19,2.46-38.93-16.26,4.43,0,8.62.24,13.06.49,1.23,5.66,5.66,10.1,11.82,9.61,5.42,1,13.31-4,9.36-9.86-8.86-5.17-20.44-4.19-28.82-10.84-6.16-4.93-4.93-15.77,2-20Z" transform="translate(0.12 0.12)"/><path class="cls-3" d="M175.66,572.57a23.7,23.7,0,0,0,4.19-2.71c2,5.42,1.23,13.8,8.13,15.77,8.38,2.21,17,1,25.38,1.48a50.68,50.68,0,0,1,.25,6.16c-12.32.73-24.64.49-37,.49,3.69-7.15.25-14-1-21.19Z" transform="translate(0.12 0.12)"/><path class="cls-2" d="M318.56,579.71c7.39-3.69,17.49-.24,20.45,7.64,4.93,10.6-.25,27.1-13.8,26.86-17.49.49-21.19-27.84-6.65-34.5Z" transform="translate(0.12 0.12)"/><path class="cls-26" d="M452.83,578.24a108.24,108.24,0,0,1,17.74,1.47,19.4,19.4,0,0,1-.24,10.6,103.28,103.28,0,0,1-17.5,1.72V578.24Z" transform="translate(0.12 0.12)"/><path class="cls-27" d="M515.9,578.73c3.7,7.39,5.67,15.27,7.64,22.91H508.76c2.22-7.64,4.43-15.27,7.14-22.91Z" transform="translate(0.12 0.12)"/><path class="cls-28" d="M562.71,579c6.66-1,19.22-2.22,19.22,7.39-2.22,8.37-12.56,6.4-19,6.65,0-4.68,0-9.36-.25-14Z" transform="translate(0.12 0.12)"/><path class="cls-2" d="M452.83,600.41c6.41.49,14.79-1.48,19.22,4.43,2.71,11.09-12.32,9.37-19.22,9.12V600.41Z" transform="translate(0.12 0.12)"/><path class="cls-29" d="M188.47,605.09c11.58-3.94,26.37,4.93,24.64,18.23,1,14.78-17.49,22.67-28.82,15-12.57-7.39-10.35-29.56,4.18-33.26Z" transform="translate(0.12 0.12)"/><path class="cls-26" d="M188.47,612.48c5.92-1.48,14.05-1.48,17.74,4.44,3.45,4.68,2.22,12.32-3.2,14.78-6.16,3.2-14.54,3-19.71-2.22-4.43-5.66-1.72-14.78,5.17-17Z" transform="translate(0.12 0.12)"/><path class="cls-2" d="M71.94,621.35c11.83-4.19,26.36-3.69,36.22,4.44,8.37,7.39,10.84,19,11.33,29.56.25,14.78-.25,29.57,0,44.35H0V643.77c2.22-6.4,5.17-13.06,10.84-17,15-10.84,39.42-7.14,47.06,11.09,2.71-6.9,6.65-14,14-16.51Z" transform="translate(0.12 0.12)"/><path class="cls-29" d="M246.62,643.77c5.91-2.46,13.3-4.19,18.48.25,4.68,5.17-2.22,9.61-5.92,12.56,3,2.22,5.67,4.19,8.63,6.41,1.72-3.94,3.2-8.87,8.62-8.13a80.9,80.9,0,0,1-3.7,10.84c2,2.46,4.19,4.68,6.16,7.14-5.42-.49-10.84-3.45-16-1.23-6.9,2.71-16.75,2.47-20.45-4.93-2-4.92,3-8.13,5.67-11.33a45,45,0,0,1-1.48-11.58Z" transform="translate(0.12 0.12)"/><path class="cls-30" d="M300.08,641.06c8.38,1,18.73-2.46,25.38,4.19,3.94,3.94-.25,8.87-2.22,12.56,2,4.69,3.94,9.61,4.44,15-5.42,3.45-5.92-4.68-7.15-7.63-1-7.64-9.61-4.93-15-5.67v14a40.31,40.31,0,0,1-5.42-.74c-.74-10.59-.24-21.18,0-31.78Z" transform="translate(0.12 0.12)"/><path class="cls-30" d="M348.37,641.8c10.35-3,24.64,3.94,23.65,16-.74,17.5-28.33,21-35.48,5.92-4.68-9.12,1.73-20.94,11.83-21.93Z" transform="translate(0.12 0.12)"/><path class="cls-31" d="M392.72,641.8c10.84-3.2,25.62,5.42,22.91,18-2.71,16.75-30.55,18.23-36,2.46-3.94-8.87,3.45-19.71,13.06-20.45Z" transform="translate(0.12 0.12)"/><path class="cls-29" d="M423.27,641.06c9.11.25,18,0,27.1.25v3.45c-7.39.24-14.54.24-21.68.24v10.84h19.46v3.95H428.69v14c-1.48-.25-3.94-.74-5.42-1-.74-10.59-.25-21.18,0-31.78Z" transform="translate(0.12 0.12)"/><path class="cls-30" d="M456.53,641.31c7.64.24,16.26-1.48,23.65,2,5.42,4.19,3,10.35-.74,14.53,2.22,4.93,4.93,9.86,4.44,15.53-5.92,2.21-5.67-6.16-7.4-9.37-1.47-6.4-9.6-3.69-14-4.43-1.23,4.93,2.47,12.81-4.19,14.54l-1.48-1.73c-.73-10.35-.24-20.69-.24-31Z" transform="translate(0.12 0.12)"/><path class="cls-32" d="M506.05,644c1.23-3.45,5.17-2.71,7.88-3.2,5.92,10.84,12.57,21.43,17,32.76-6.16,1-8.37-4.68-11.08-9.11-5.67,0-11.58,0-17.25.24-3.7,3.21-5.67,8.63-11.33,9.12,3.2-10.6,9.61-20,14.78-29.81Z" transform="translate(0.12 0.12)"/><path class="cls-3" d="M545.22,643.53c9.61-4.93,25.63-3,28.83,9.11-7.39.74-10.1-8.38-17.25-7.88-7.39-.74-15,5.17-14,13-.49,11.09,15.27,15.53,22.17,8.14,2.47-2.47,5.42-4.44,9.36-3.7-4.92,13.06-23.15,14-33,6.16-7.88-6.41-5.91-21.19,3.94-24.88Z" transform="translate(0.12 0.12)"/><path class="cls-4" d="M577.5,641.31c1.48,0,4.19-.25,5.42-.25q.36,6.66.74,13.31c8.37-4.44,14.29-14.29,24.88-13.55-5.91,5.42-12.56,10.1-19,15,6.41,6.66,14.29,12.08,20.94,18.48-11.58.49-17.74-10.59-26.85-15.77-1.24,4.93,1.47,11.58-2.47,15.53-.74-.5-2.71-1.73-3.45-2.22-.24-10.1,0-20.45-.24-30.55Z" transform="translate(0.12 0.12)"/><path class="cls-29" d="M617.16,644.26c6.9-4.43,17.25-4.43,23.41,1,3,1.48,2.22,8.87-1.73,5.17-4.92-4.68-10.84-6.89-17.49-4.43,0,1.72-.24,4.93-.24,6.4,7.39,2.71,16.26,2.71,21.68,8.63,3.2,5.17-2.22,10.59-7.4,11.33-8.62,2.71-21.43.25-22.42-10.59,6.66,0,8.63,8.62,15.28,7.63,3.45,0,6.41-1.47,9.61-2.21-1-10.6-15-6.9-21.19-12.57-3.94-2-3.2-8.37.49-10.35Z" transform="translate(0.12 0.12)"/><path class="cls-33" d="M251.05,645.25a41.87,41.87,0,0,1,9.61.49c2,4.44-2.46,7.64-6.65,7.64a16.37,16.37,0,0,1-3-8.13Z" transform="translate(0.12 0.12)"/><path class="cls-34" d="M305.5,644.76c5.67.74,15-2,16.26,5.66-2.21,7.15-10.84,5.18-16.26,5.67V644.76Z" transform="translate(0.12 0.12)"/><path class="cls-26" d="M348.12,646c6.16-3,15.77-.25,17.25,7.14,3,8.13-4.19,18-13.06,16.26-12.07,0-15.52-19.46-4.19-23.4Z" transform="translate(0.12 0.12)"/><path class="cls-26" d="M392.47,645.74c7.15-3.2,17,1.48,17,9.61,1.48,8.62-6.65,16.26-15,13.8-11.33-1.48-12.81-20-2-23.41Z" transform="translate(0.12 0.12)"/><path class="cls-28" d="M462.19,644.76c5.43.24,17.5-1.48,15.53,7.63-3.45,4.93-10.35,3.21-15.53,3.7V644.76Z" transform="translate(0.12 0.12)"/><path class="cls-35" d="M510.48,646.73a76.53,76.53,0,0,1,7.4,14H503.83q3-7,6.65-14Z" transform="translate(0.12 0.12)"/><path class="cls-30" d="M26.12,654.12c3.69-5.17,11.82-5.91,16.75-2.22,4.68,4.68,3,12.07,3.69,18-7.39.24-14.78.24-22.17.24.25-5.42-.25-10.84,1.73-16Z" transform="translate(0.12 0.12)"/><path class="cls-3" d="M73.42,652.15c3.94-3.7,10.1-3.7,14.78-2,6.41,4.68,5.18,13.05,5.67,20H70.71c.25-5.91-.25-12.56,2.71-18Z" transform="translate(0.12 0.12)"/><path class="cls-3" d="M163.34,651.41a36.44,36.44,0,0,1,5.18-.49c1.23,3.2,1.72,10.84,7.14,7.88.25-2,.5-6.41.74-8.38,5.42-.49,4.19,5.42,4.93,9.12,10.84.25,21.68-1,32.28,1,0,1.48-.25,4.44-.25,6.16-10.35-.24-20.7,0-31-.24-.74,2-2.22,6.16-3,8.13-1.48-2.47-3.2-4.68-4.44-7.15-7.88-1.72-12.31-8.13-11.58-16Z" transform="translate(0.12 0.12)"/><path class="cls-36" d="M247.85,662.74c4.19-9.36,12.81,0,16.51,4.68-5.18,2.22-17.25,4.44-16.51-4.68Z" transform="translate(0.12 0.12)"/></g></g></svg>