<?xml version="1.0" encoding="UTF-8"?>
<svg width="28px" height="30px" viewBox="0 0 28 30" version="1.1" xmlns="http://www.w3.org/2000/svg" xmlns:xlink="http://www.w3.org/1999/xlink">
    <!-- Generator: sketchtool 51.2 (57519) - http://www.bohemiancoding.com/sketch -->
    <title>8FCB917D-773E-4517-A795-2076CD939263</title>
    <desc>Created with sketchtool.</desc>
    <defs></defs>
    <g id="Main-Artwork" stroke="none" stroke-width="1" fill="none" fill-rule="evenodd">
        <g id="Witter-Homepage---Mobile" transform="translate(-174.000000, -3950.000000)" fill="#FFFFFF">
            <g id="Icon-/-Swipe-/-White" transform="translate(173.000000, 3950.000000)">
                <path d="M26.2090938,11.9455887 C25.0910854,11.9455887 24.4121914,12.4264776 24.037596,13.1229045 L24.037596,12.7205671 C24.037596,11.5499569 23.0129956,10.6082958 21.7476528,10.6082958 C20.7009041,10.6082958 19.8284531,11.2577833 19.5549696,12.1448415 C19.4740801,11.0432034 18.4918504,10.1743462 17.2813968,10.1743462 C16.2924264,10.1743462 15.4594572,10.7539036 15.1378251,11.5624102 L15.1378251,2.16783217 C15.1378251,0.967525625 14.2258923,0 13.104032,0 C11.9783198,0 11.065424,0.967525625 11.065424,2.16783217 L11.065424,16.3004119 L8.40184837,12.4753329 C7.09509777,10.6351183 5.55723431,10.7270811 4.64626448,11.3918958 C4.20811302,11.7137657 3.57640455,12.4849123 4.61063458,14.2417856 C8.04362344,20.070888 12.1738028,26.15672 12.1738028,26.15672 C13.7107032,28.4711179 16.3020561,30 19.2275597,30 L19.9757875,30 C24.6644896,30 28.5,26.0733787 28.5,21.2769422 L28.5,14.0578599 C28.5,12.8872497 27.4744367,11.9455887 26.2090938,11.9455887 Z M5.65930916,5.35683495 L5.65930916,4.01475237 L8.99792694,4.01475237 L8.99792694,1.84979404 L5.65930916,1.84979404 L5.65930916,0.507711467 C5.65930916,0.190631287 5.44264086,0.0756777469 5.17878701,0.255771626 L1.69861261,2.60752946 C1.4337958,2.78666539 1.4337958,3.07788102 1.69861261,3.25701696 L5.17878701,5.60973273 C5.44264086,5.78791072 5.65930916,5.67391513 5.65930916,5.35683495 Z M20.6315703,5.35683495 C20.6315703,5.67391513 20.8472756,5.78791072 21.1111294,5.60973273 L24.5913038,3.25701696 C24.8551577,3.07788102 24.8551577,2.78666539 24.5913038,2.60752946 L21.1111294,0.255771626 C20.8472756,0.0756777469 20.6315703,0.190631287 20.6315703,0.507711467 L20.6315703,1.84979404 L17.2919895,1.84979404 L17.2919895,4.01475237 L20.6315703,4.01475237 L20.6315703,5.35683495 Z" id="Fill-1"></path>
            </g>
        </g>
    </g>
</svg>